+8_ID_stride2.mot
nRows=15
nColumns=38

name +8_ID_stride2.mot
datacolumns 38
datarows 15
range 0.4250000000 0.4950000000
endheader
time	pelvis_tilt_moment	pelvis_list_moment	pelvis_rotation_moment	pelvis_tx_force	pelvis_ty_force	pelvis_tz_force	hip_flexion_r_moment	hip_adduction_r_moment	hip_rotation_r_moment	knee_angle_r_moment	ankle_angle_r_moment	subtalar_angle_r_moment	mtp_angle_r_moment	hip_flexion_l_moment	hip_adduction_l_moment	hip_rotation_l_moment	knee_angle_l_moment	ankle_angle_l_moment	subtalar_angle_l_moment	mtp_angle_l_moment	lumbar_extension_moment	lumbar_bending_moment	lumbar_rotation_moment	arm_flex_r_moment	arm_add_r_moment	arm_rot_r_moment	elbow_flex_r_moment	pro_sup_r_moment	wrist_flex_r_moment	wrist_dev_r_moment	arm_flex_l_moment	arm_add_l_moment	arm_rot_l_moment	elbow_flex_l_moment	pro_sup_l_moment	wrist_flex_l_moment	wrist_dev_l_moment
        0.4250000000	        5.8964941062	       -7.2135916068	       27.9025307969	       -2.4919642228	      -52.5257423852	      -77.6441435891	      -13.1454506207	      -13.7373816698	        3.9035675761	       -0.6151641229	        2.4564219153	       -0.8015531281	        0.1215978036	        6.3889305472	      -58.1157822584	       -5.9526229927	        9.9290944344	     -184.8285758266	       23.0338897334	       -0.0375715305	       18.9561638995	        8.8490766476	       41.5582026019	        7.9001998382	        5.1816207587	        4.1931093435	        5.2920861116	        0.0246415677	        0.5579569096	       -0.3406077900	       -0.3787250681	       -2.0505850630	       -3.4673793068	        4.8406412636	       -0.2141174339	       -0.3074284925	       -0.4988361422	
        0.4300000000	        8.8568733149	      -18.6442852647	       23.4038164618	       -5.6852833106	      -59.5522191450	      -67.2028312216	      -16.1836944054	      -15.3770923404	        4.6224212556	       -1.1648702955	        2.4959666540	       -0.8953771777	        0.1192503992	        6.3928608287	      -54.0528826373	       -4.2550658659	        2.9290330862	     -172.0094924466	       22.1787839338	       -0.0441907998	        9.7968838432	        4.1044526482	       40.9029497400	        7.4942225699	        4.8928484773	        4.0526730493	        4.7379281037	        0.0341779494	        0.5322638806	       -0.2895855950	       -0.8515824693	       -2.1713729427	       -3.4229041009	        4.1635037406	       -0.2019929007	       -0.3166892533	       -0.4360621617	
        0.4350000000	       14.2819244593	      -27.1054817443	       21.5345815589	       -7.8377211537	      -55.7095923208	      -55.6731633218	      -19.5608164495	      -16.0786301738	        5.0030611245	       -1.8818205610	        2.5459341406	       -0.9763667926	        0.1194687194	        8.0627666256	      -46.4501585767	       -5.8658689735	       -2.3465814601	     -158.5970927765	       20.8112198477	       -0.0502959702	        2.7854129210	       -0.2716397778	       38.7419546289	        6.8999578714	        4.4726177875	        3.7816662980	        4.2105896834	        0.0388095274	        0.4938491310	       -0.2451416362	       -1.2287862223	       -2.0986532271	       -3.2099405262	        3.5423472732	       -0.1857975342	       -0.3060909566	       -0.3750210848	
        0.4400000000	       20.3713327166	      -26.0654615497	       20.8183704111	      -10.7044931471	      -46.7369046716	      -47.5601056758	      -22.8191856585	      -15.4553971669	        4.9518440589	       -2.6208183352	        2.6135515168	       -1.0419587209	        0.1215654525	       13.7296574151	      -37.0786394807	       -7.8753759802	       -3.1291093130	     -144.3223107605	       19.7301126056	       -0.0555837321	       -1.3984639272	       -4.3316164847	       35.6190871730	        6.1999208235	        3.9467855317	        3.4113312423	        3.7389145569	        0.0383743478	        0.4462608433	       -0.2100037328	       -1.4950209220	       -1.8907174697	       -2.8805899955	        2.9984115776	       -0.1669850637	       -0.2826881949	       -0.3193289350	
        0.4450000000	       23.3452249650	      -21.3464357238	       20.0615166124	      -14.1936105874	      -34.6654402652	      -42.3623829539	      -25.7221153145	      -13.5691499354	        4.7451145122	       -3.3276289639	        2.6990893697	       -1.0975303638	        0.1263161655	       23.0396773209	      -28.3466219665	       -8.8017591743	       -3.1781088280	     -129.2582378528	       18.7974548562	       -0.0593438604	       -2.9778657374	       -8.0423012209	       31.9783219889	        5.4728687972	        3.3386597603	        2.9710961120	        3.3157240740	        0.0363207139	        0.3932552140	       -0.1822096120	       -1.6890687058	       -1.5359790099	       -2.4697998336	        2.5109290675	       -0.1467435101	       -0.2486386337	       -0.2685962182	
        0.4500000000	       22.9245635153	      -10.9899537803	       17.8566637227	      -17.6932708285	      -24.0419429773	      -39.5542768197	      -28.0557753770	      -10.0920204141	        4.3546282844	       -3.9660008568	        2.8051168856	       -1.1452708813	        0.1329109095	       32.6982657877	      -22.3467891855	       -6.9856374269	       -1.8584001264	     -113.3693749150	       17.8587161070	       -0.0611763176	       -2.9378210628	      -11.2707048727	       28.3069967233	        4.7941994916	        2.6576203333	        2.4869235878	        2.9418696147	        0.0318212307	        0.3381614376	       -0.1612774797	       -1.8266942236	       -1.0685235144	       -2.0132019370	        2.0718047020	       -0.1260423981	       -0.2099866715	       -0.2231572572	
        0.4550000000	       17.5986853350	       -1.9498888728	       15.1358496190	      -17.2504362204	      -18.4262961322	      -36.4706227104	      -29.9785233914	       -5.5982959762	        4.0320745777	       -4.6917123691	        2.9202463714	       -1.1903915974	        0.1405203417	       38.9580173374	      -19.3481995576	       -3.4930305687	       -2.5494245241	      -97.6459298834	       16.2929494591	       -0.0593765715	       -1.6060297359	      -13.7533901231	       25.0427483198	        4.2003189712	        1.9133550925	        1.9878055392	        2.5846701528	        0.0273438371	        0.2838329308	       -0.1430780208	       -1.9714901538	       -0.5185298444	       -1.5445099326	        1.6379683699	       -0.1054012487	       -0.1715385025	       -0.1797325367	
        0.4600000000	       10.0721902181	        4.0336055114	       14.8405770373	      -11.1315782692	      -22.7538466179	      -32.0744020729	      -32.0295822207	       -0.3628701582	        3.9232747180	       -5.7789185864	        3.0280866866	       -1.2321656270	        0.1483529993	       40.6563023051	      -16.5531652029	       -0.3250557325	       -5.3321309460	      -83.7921020586	       14.3602907941	       -0.0532810665	        0.0069401800	      -15.0202072458	       22.4136501419	        3.6659719688	        1.1121335133	        1.4931979290	        2.2000179084	        0.0240954182	        0.2315127294	       -0.1223259219	       -2.1892543614	        0.0859955865	       -1.0823601268	        1.1663006010	       -0.0846485524	       -0.1363215168	       -0.1341258808	
        0.4650000000	        3.1422066457	        9.0272920671	       16.3102165912	        3.2953511697	      -39.6364718408	      -26.4056362752	      -34.8147221070	        5.3857887191	        3.9760508231	       -7.5199777629	        3.1081915362	       -1.2647198297	        0.1555889442	       41.8843679871	      -11.8558586868	        0.9829390983	       -9.4383602615	      -72.6636857129	       12.7713813835	       -0.0411573644	        0.8765823383	      -14.9198469243	       20.4381288119	        3.1259668239	        0.2728366086	        1.0210191349	        1.7449300886	        0.0238500474	        0.1816492607	       -0.0944195173	       -2.5304815538	        0.7038752267	       -0.6409792903	        0.6223101329	       -0.0633549809	       -0.1062207855	       -0.0825876113	
        0.4700000000	       -1.6413145694	       15.6086805440	       20.9998909936	       23.0077560480	      -74.2913280023	      -19.0751975648	      -38.6744773506	       11.4006420887	        4.2066650463	      -10.1622445064	        3.1385955653	       -1.2739525442	        0.1617294511	       44.7508401047	       -4.2296342541	        1.1834356649	      -10.8472409732	      -63.1162737435	       11.8266654160	       -0.0219455826	        0.8801757218	      -13.7084983061	       18.9400540366	        2.4955797639	       -0.5603996631	        0.5952853860	        1.1764187283	        0.0255667061	        0.1344962316	       -0.0547619500	       -3.0345937367	        1.2647331537	       -0.2380531987	       -0.0213391216	       -0.0410342136	       -0.0827427129	       -0.0218696634	
        0.4750000000	       -4.7082661744	       26.2354717211	       26.5731839945	       43.5449319159	     -125.8459823064	       -9.1940287820	      -43.5707954585	       17.4687241625	        4.5592076547	      -13.7856025982	        3.1440228928	       -1.2655307917	        0.1667855242	       53.4532271894	        5.3952171142	        0.9768515960	       -9.4299725958	      -53.8859381230	       11.2953667771	        0.0050570601	       -0.7273731646	      -11.1031031681	       17.7088039594	        1.7071057320	       -1.3511540783	        0.2235848562	        0.4718981775	        0.0318130895	        0.0898649682	       -0.0005077872	       -3.7094758099	        1.7317825201	        0.1210366942	       -0.7700203077	       -0.0175324371	       -0.0650266098	        0.0491482509	
        0.4800000000	       -7.6407806107	       38.6580057543	       29.8950019553	       56.4975324722	     -186.3675538654	        7.1661075765	      -49.1093716876	       23.1170007790	        4.9696115496	      -18.2042004937	        3.1148887542	       -1.2316275062	        0.1703282217	       64.5857277509	       13.4996649718	        1.6782911507	       -4.8583617890	      -42.9468878638	       10.2975508114	        0.0390616169	       -3.5750400910	       -8.0262729499	       16.3846830718	        0.7116111377	       -2.0181178626	       -0.0663510631	       -0.3556453630	        0.0407960247	        0.0484041299	        0.0667567775	       -4.4999955182	        2.0091052420	        0.4144592828	       -1.5955634925	        0.0068052685	       -0.0537038500	        0.1284891909	
        0.4850000000	      -11.1359211020	       40.9501461256	       29.7192672222	       56.6094191429	     -249.0260718025	       33.5882495135	      -55.7454141005	       27.9299772733	        5.4464363077	      -23.5624051233	        3.0266249954	       -1.1635692877	        0.1705854725	       71.5619789178	       18.4632954410	        3.4278327537	       -0.1498652053	      -31.7310932618	        8.6344882173	        0.0801849556	       -7.7954454044	       -4.8965752128	       14.7929107053	       -0.4852834182	       -2.5016071400	       -0.2606745870	       -1.2684658051	        0.0523448548	        0.0116597126	        0.1443198122	       -5.3494301716	        2.0236320694	        0.6278336592	       -2.4479181213	        0.0307854003	       -0.0483329727	        0.2118752024	
        0.4900000000	      -14.6592377231	       37.5161872543	       26.7386103706	       47.2400672151	     -296.8931997329	       68.5994088117	      -63.4003606147	       31.3842357125	        5.9878257976	      -29.7352007813	        2.8709853774	       -1.0678757608	        0.1685831319	       72.0861200095	       20.5930963735	        5.3313076488	        0.8093775111	      -22.4713153225	        6.5484794220	        0.1266531233	      -12.9612049634	       -2.3023932397	       12.8486977903	       -1.7967346020	       -2.6809890149	       -0.3165222240	       -2.1772900928	        0.0648134783	       -0.0183734742	        0.2242866864	       -6.1542237840	        1.8683572325	        0.7324196310	       -3.2399298964	        0.0524348183	       -0.0474502904	        0.2912778877	
        0.4950000000	      -16.3428627151	       18.1659768193	       20.9311401850	       25.9340455927	     -315.2227591131	      100.8424313442	      -71.7652589928	       32.8183957250	        6.5850578693	      -36.5571472478	        2.6433617566	       -0.9494654742	        0.1617047210	       65.6131906500	       21.5127096808	        6.2213589356	       -1.5622282911	      -15.6532852228	        4.5636875072	        0.1764036351	      -18.7267942317	       -0.6976107846	       10.6649008066	       -3.0731078426	       -2.6834447974	       -0.3027858696	       -2.9595232466	        0.0763728814	       -0.0359595256	        0.2963065902	       -6.7870529394	        1.4254100191	        0.7527474585	       -3.8495156808	        0.0683863649	       -0.0505735923	        0.3556092686	
